# xmcd CD database file
#
# Track frame offsets:
#	150
#	14833
#	26394
#	40266
#	60131
#	77366
#	94064
#	111341
#	131030
#	148956
#
# Disc length: 2165 seconds
#
# Revision: 0
# Processed by: cddbd v1.4b42PL1 Copyright (c) Steve Scherf et al.
# Submitted via: Feurio! 1.62 - http://www.feurio.com
#
DISCID=8008730a
DTITLE=Country Company - Best of the old ´97 Session 1
DYEAR=1900
DGENRE=
TTITLE0=The race is on
TTITLE1=Holdin´ heaven
TTITLE2=Folsom prison blues
TTITLE3=Peaceful easy feeling
TTITLE4=Oh me, oh my
TTITLE5=Kick a little
TTITLE6=I don´t even know your name
TTITLE7=Honky tonk woman
TTITLE8=Friends in low places
TTITLE9=Amarillo by morning
EXTD=
EXTT0=
EXTT1=
EXTT2=
EXTT3=
EXTT4=
EXTT5=
EXTT6=
EXTT7=
EXTT8=
EXTT9=
PLAYORDER=
